<svg width="1200" height="900" viewBox="0 0 1200 900" fill="none" xmlns="http://www.w3.org/2000/svg">
  <rect width="1200" height="900" rx="40" fill="#0B0F19"/>
  <rect x="60" y="60" width="1080" height="780" rx="32" fill="#101827" stroke="rgba(255,255,255,0.12)"/>
  <rect x="100" y="100" width="220" height="700" rx="24" fill="#0F1725"/>
  <rect x="350" y="100" width="750" height="150" rx="24" fill="#111E30"/>
  <rect x="350" y="280" width="360" height="210" rx="24" fill="#101D2D"/>
  <rect x="740" y="280" width="360" height="210" rx="24" fill="#101D2D"/>
  <rect x="350" y="520" width="750" height="220" rx="24" fill="#0F1725"/>
  <rect x="130" y="150" width="160" height="18" rx="9" fill="#10B981" fill-opacity=".85"/>
  <rect x="130" y="196" width="120" height="10" rx="5" fill="#334155"/>
  <rect x="130" y="238" width="140" height="10" rx="5" fill="#334155"/>
  <rect x="130" y="280" width="110" height="10" rx="5" fill="#334155"/>
  <path d="M390 210H630" stroke="#334155" stroke-width="12" stroke-linecap="round"/>
  <path d="M390 192C455 148 544 149 625 205" stroke="#10B981" stroke-width="10" stroke-linecap="round"/>
  <rect x="390" y="570" width="660" height="24" rx="12" fill="#1E293B"/>
  <rect x="390" y="622" width="500" height="18" rx="9" fill="#334155"/>
  <rect x="390" y="664" width="590" height="18" rx="9" fill="#334155"/>
  <circle cx="993" cy="177" r="56" fill="#10B981" fill-opacity=".16"/>
  <circle cx="1015" cy="176" r="12" fill="#10B981"/>
  <circle cx="1046" cy="176" r="12" fill="#34D399"/>
</svg>
