<svg width="1200" height="630" viewBox="0 0 1200 630" fill="none" xmlns="http://www.w3.org/2000/svg">
  <defs>
    <linearGradient id="bg" x1="112" y1="74" x2="1080" y2="584" gradientUnits="userSpaceOnUse">
      <stop stop-color="#0A2138"/>
      <stop offset="0.58" stop-color="#0D2F50"/>
      <stop offset="1" stop-color="#143D64"/>
    </linearGradient>
    <radialGradient id="glowA" cx="0" cy="0" r="1" gradientUnits="userSpaceOnUse" gradientTransform="translate(252 196) rotate(21.5) scale(388 286)">
      <stop stop-color="#73B655" stop-opacity="0.34"/>
      <stop offset="1" stop-color="#73B655" stop-opacity="0"/>
    </radialGradient>
    <radialGradient id="glowB" cx="0" cy="0" r="1" gradientUnits="userSpaceOnUse" gradientTransform="translate(972 188) rotate(132.4) scale(346 262)">
      <stop stop-color="#2A8AD3" stop-opacity="0.26"/>
      <stop offset="1" stop-color="#2A8AD3" stop-opacity="0"/>
    </radialGradient>
    <linearGradient id="cardStroke" x1="278" y1="146" x2="984" y2="522" gradientUnits="userSpaceOnUse">
      <stop stop-color="white" stop-opacity="0.16"/>
      <stop offset="1" stop-color="white" stop-opacity="0.04"/>
    </linearGradient>
    <linearGradient id="accent" x1="224" y1="88" x2="1018" y2="566" gradientUnits="userSpaceOnUse">
      <stop stop-color="#73B655"/>
      <stop offset="1" stop-color="#4E8FFF"/>
    </linearGradient>
    <filter id="blur" x="0" y="0" width="1200" height="630" filterUnits="userSpaceOnUse" color-interpolation-filters="sRGB">
      <feGaussianBlur stdDeviation="30"/>
    </filter>
  </defs>

  <rect width="1200" height="630" fill="url(#bg)"/>
  <g opacity="0.42">
    <rect width="1200" height="630" fill="url(#glowA)"/>
    <rect width="1200" height="630" fill="url(#glowB)"/>
  </g>

  <g opacity="0.08">
    <path d="M0 110H1200" stroke="white"/>
    <path d="M0 190H1200" stroke="white"/>
    <path d="M0 270H1200" stroke="white"/>
    <path d="M0 350H1200" stroke="white"/>
    <path d="M0 430H1200" stroke="white"/>
    <path d="M0 510H1200" stroke="white"/>
    <path d="M118 0V630" stroke="white"/>
    <path d="M238 0V630" stroke="white"/>
    <path d="M358 0V630" stroke="white"/>
    <path d="M478 0V630" stroke="white"/>
    <path d="M598 0V630" stroke="white"/>
    <path d="M718 0V630" stroke="white"/>
    <path d="M838 0V630" stroke="white"/>
    <path d="M958 0V630" stroke="white"/>
    <path d="M1078 0V630" stroke="white"/>
  </g>

  <g filter="url(#blur)" opacity="0.28">
    <circle cx="238" cy="162" r="74" fill="#73B655"/>
    <circle cx="1006" cy="492" r="88" fill="#0D2F50"/>
  </g>

  <rect x="78" y="62" width="1044" height="506" rx="34" fill="rgba(255,255,255,0.04)" stroke="url(#cardStroke)"/>

  <g>
    <rect x="118" y="108" width="404" height="62" rx="18" fill="rgba(255,255,255,0.07)"/>
    <text x="146" y="148" fill="#73B655" font-family="Inter, Arial, sans-serif" font-size="22" font-weight="700" letter-spacing="0.32em">WEBERSE INFOTECH</text>
  </g>

  <g>
    <text x="118" y="268" fill="white" font-family="Inter, Arial, sans-serif" font-size="84" font-weight="800">Premium websites</text>
    <text x="118" y="360" fill="white" font-family="Inter, Arial, sans-serif" font-size="84" font-weight="800">and platforms</text>
    <text x="118" y="452" fill="white" font-family="Inter, Arial, sans-serif" font-size="84" font-weight="800">that convert.</text>
  </g>

  <text x="120" y="512" fill="#D7E3F0" font-family="Inter, Arial, sans-serif" font-size="28" font-weight="500">
    Web development, AI automation, client portals, hosting journeys, and business systems.
  </text>

  <g>
    <rect x="774" y="156" width="266" height="178" rx="26" fill="rgba(255,255,255,0.08)" stroke="rgba(255,255,255,0.10)"/>
    <rect x="810" y="192" width="114" height="14" rx="7" fill="#73B655"/>
    <rect x="810" y="224" width="174" height="10" rx="5" fill="rgba(255,255,255,0.22)"/>
    <rect x="810" y="250" width="152" height="10" rx="5" fill="rgba(255,255,255,0.14)"/>
    <rect x="810" y="282" width="84" height="36" rx="18" fill="url(#accent)"/>
    <text x="830" y="306" fill="white" font-family="Inter, Arial, sans-serif" font-size="16" font-weight="700">Go Live</text>
  </g>

  <g>
    <rect x="708" y="370" width="332" height="122" rx="26" fill="rgba(5,18,32,0.54)" stroke="rgba(255,255,255,0.08)"/>
    <text x="742" y="410" fill="#73B655" font-family="Inter, Arial, sans-serif" font-size="18" font-weight="700" letter-spacing="0.22em">SYSTEMS</text>
    <text x="742" y="448" fill="white" font-family="Inter, Arial, sans-serif" font-size="34" font-weight="800">Website + CRM + Portal</text>
    <text x="742" y="478" fill="#C8D5E3" font-family="Inter, Arial, sans-serif" font-size="18" font-weight="500">Designed to scale cleanly.</text>
  </g>

  <g opacity="0.15">
    <circle cx="1070" cy="126" r="8" fill="white"/>
    <circle cx="1038" cy="126" r="8" fill="white"/>
    <circle cx="1006" cy="126" r="8" fill="white"/>
  </g>
</svg>
