<svg width="388" height="148" viewBox="0 0 388 148" fill="none" xmlns="http://www.w3.org/2000/svg">
<path d="M1.06 2.12C1.64542 2.12 2.12 1.64542 2.12 1.06C2.12 0.47458 1.64542 0 1.06 0C0.47458 0 0 0.47458 0 1.06C0 1.64542 0.47458 2.12 1.06 2.12Z" fill="white"/>
<path d="M21.32 2.12C21.9054 2.12 22.38 1.64542 22.38 1.06C22.38 0.47458 21.9054 0 21.32 0C20.7346 0 20.26 0.47458 20.26 1.06C20.26 1.64542 20.7346 2.12 21.32 2.12Z" fill="white"/>
<path d="M41.59 2.12C42.1754 2.12 42.65 1.64542 42.65 1.06C42.65 0.47458 42.1754 0 41.59 0C41.0046 0 40.53 0.47458 40.53 1.06C40.53 1.64542 41.0046 2.12 41.59 2.12Z" fill="white"/>
<path d="M61.86 2.12C62.4454 2.12 62.92 1.64542 62.92 1.06C62.92 0.47458 62.4454 0 61.86 0C61.2746 0 60.8 0.47458 60.8 1.06C60.8 1.64542 61.2746 2.12 61.86 2.12Z" fill="white"/>
<path d="M82.1201 2.12C82.7055 2.12 83.1801 1.64542 83.1801 1.06C83.1801 0.47458 82.7055 0 82.1201 0C81.5346 0 81.0601 0.47458 81.0601 1.06C81.0601 1.64542 81.5346 2.12 82.1201 2.12Z" fill="white"/>
<path d="M103.45 1.06C103.45 1.64 102.98 2.12 102.39 2.12C101.81 2.12 101.33 1.65 101.33 1.06C101.33 0.470001 101.8 0 102.39 0C102.97 0 103.45 0.470001 103.45 1.06Z" fill="white"/>
<path d="M122.66 2.12C123.245 2.12 123.72 1.64542 123.72 1.06C123.72 0.47458 123.245 0 122.66 0C122.075 0 121.6 0.47458 121.6 1.06C121.6 1.64542 122.075 2.12 122.66 2.12Z" fill="white"/>
<path d="M142.92 2.12C143.505 2.12 143.98 1.64542 143.98 1.06C143.98 0.47458 143.505 0 142.92 0C142.335 0 141.86 0.47458 141.86 1.06C141.86 1.64542 142.335 2.12 142.92 2.12Z" fill="white"/>
<path d="M163.19 2.12C163.775 2.12 164.25 1.64542 164.25 1.06C164.25 0.47458 163.775 0 163.19 0C162.605 0 162.13 0.47458 162.13 1.06C162.13 1.64542 162.605 2.12 163.19 2.12Z" fill="white"/>
<path d="M183.46 2.12C184.045 2.12 184.52 1.64542 184.52 1.06C184.52 0.47458 184.045 0 183.46 0C182.875 0 182.4 0.47458 182.4 1.06C182.4 1.64542 182.875 2.12 183.46 2.12Z" fill="white"/>
<path d="M204.78 1.06C204.78 1.64 204.31 2.12 203.72 2.12C203.14 2.12 202.66 1.65 202.66 1.06C202.66 0.470001 203.13 0 203.72 0C204.31 0 204.78 0.470001 204.78 1.06Z" fill="white"/>
<path d="M223.99 2.12C224.575 2.12 225.05 1.64542 225.05 1.06C225.05 0.47458 224.575 0 223.99 0C223.405 0 222.93 0.47458 222.93 1.06C222.93 1.64542 223.405 2.12 223.99 2.12Z" fill="white"/>
<path d="M244.26 2.12C244.845 2.12 245.32 1.64542 245.32 1.06C245.32 0.47458 244.845 0 244.26 0C243.675 0 243.2 0.47458 243.2 1.06C243.2 1.64542 243.675 2.12 244.26 2.12Z" fill="white"/>
<path d="M264.52 2.12C265.105 2.12 265.58 1.64542 265.58 1.06C265.58 0.47458 265.105 0 264.52 0C263.935 0 263.46 0.47458 263.46 1.06C263.46 1.64542 263.935 2.12 264.52 2.12Z" fill="white"/>
<path d="M284.79 2.12C285.375 2.12 285.85 1.64542 285.85 1.06C285.85 0.47458 285.375 0 284.79 0C284.205 0 283.73 0.47458 283.73 1.06C283.73 1.64542 284.205 2.12 284.79 2.12Z" fill="white"/>
<path d="M305.05 2.12C305.635 2.12 306.11 1.64542 306.11 1.06C306.11 0.47458 305.635 0 305.05 0C304.465 0 303.99 0.47458 303.99 1.06C303.99 1.64542 304.465 2.12 305.05 2.12Z" fill="white"/>
<path d="M325.32 2.12C325.905 2.12 326.38 1.64542 326.38 1.06C326.38 0.47458 325.905 0 325.32 0C324.735 0 324.26 0.47458 324.26 1.06C324.26 1.64542 324.735 2.12 325.32 2.12Z" fill="white"/>
<path d="M345.59 2.12C346.175 2.12 346.65 1.64542 346.65 1.06C346.65 0.47458 346.175 0 345.59 0C345.005 0 344.53 0.47458 344.53 1.06C344.53 1.64542 345.005 2.12 345.59 2.12Z" fill="white"/>
<path d="M366.91 1.06C366.91 1.64 366.44 2.12 365.85 2.12C365.27 2.12 364.79 1.65 364.79 1.06C364.79 0.470001 365.26 0 365.85 0C366.44 0 366.91 0.470001 366.91 1.06Z" fill="white"/>
<path d="M386.12 2.12C386.706 2.12 387.18 1.64542 387.18 1.06C387.18 0.47458 386.706 0 386.12 0C385.535 0 385.06 0.47458 385.06 1.06C385.06 1.64542 385.535 2.12 386.12 2.12Z" fill="white"/>
<path d="M1.06 20.27C1.64542 20.27 2.12 19.7954 2.12 19.21C2.12 18.6246 1.64542 18.15 1.06 18.15C0.47458 18.15 0 18.6246 0 19.21C0 19.7954 0.47458 20.27 1.06 20.27Z" fill="white"/>
<path d="M21.32 20.27C21.9054 20.27 22.38 19.7954 22.38 19.21C22.38 18.6246 21.9054 18.15 21.32 18.15C20.7346 18.15 20.26 18.6246 20.26 19.21C20.26 19.7954 20.7346 20.27 21.32 20.27Z" fill="white"/>
<path d="M41.59 20.27C42.1754 20.27 42.65 19.7954 42.65 19.21C42.65 18.6246 42.1754 18.15 41.59 18.15C41.0046 18.15 40.53 18.6246 40.53 19.21C40.53 19.7954 41.0046 20.27 41.59 20.27Z" fill="white"/>
<path d="M61.86 20.27C62.4454 20.27 62.92 19.7954 62.92 19.21C62.92 18.6246 62.4454 18.15 61.86 18.15C61.2746 18.15 60.8 18.6246 60.8 19.21C60.8 19.7954 61.2746 20.27 61.86 20.27Z" fill="white"/>
<path d="M82.1201 20.27C82.7055 20.27 83.1801 19.7954 83.1801 19.21C83.1801 18.6246 82.7055 18.15 82.1201 18.15C81.5346 18.15 81.0601 18.6246 81.0601 19.21C81.0601 19.7954 81.5346 20.27 82.1201 20.27Z" fill="white"/>
<path d="M103.45 19.21C103.45 19.79 102.98 20.27 102.39 20.27C101.81 20.27 101.33 19.8 101.33 19.21C101.33 18.62 101.8 18.15 102.39 18.15C102.97 18.15 103.45 18.62 103.45 19.21Z" fill="white"/>
<path d="M122.66 20.27C123.245 20.27 123.72 19.7954 123.72 19.21C123.72 18.6246 123.245 18.15 122.66 18.15C122.075 18.15 121.6 18.6246 121.6 19.21C121.6 19.7954 122.075 20.27 122.66 20.27Z" fill="white"/>
<path d="M142.92 20.27C143.505 20.27 143.98 19.7954 143.98 19.21C143.98 18.6246 143.505 18.15 142.92 18.15C142.335 18.15 141.86 18.6246 141.86 19.21C141.86 19.7954 142.335 20.27 142.92 20.27Z" fill="white"/>
<path d="M163.19 20.27C163.775 20.27 164.25 19.7954 164.25 19.21C164.25 18.6246 163.775 18.15 163.19 18.15C162.605 18.15 162.13 18.6246 162.13 19.21C162.13 19.7954 162.605 20.27 163.19 20.27Z" fill="white"/>
<path d="M183.46 20.27C184.045 20.27 184.52 19.7954 184.52 19.21C184.52 18.6246 184.045 18.15 183.46 18.15C182.875 18.15 182.4 18.6246 182.4 19.21C182.4 19.7954 182.875 20.27 183.46 20.27Z" fill="white"/>
<path d="M204.78 19.21C204.78 19.79 204.31 20.27 203.72 20.27C203.14 20.27 202.66 19.8 202.66 19.21C202.66 18.62 203.13 18.15 203.72 18.15C204.31 18.15 204.78 18.62 204.78 19.21Z" fill="white"/>
<path d="M223.99 20.27C224.575 20.27 225.05 19.7954 225.05 19.21C225.05 18.6246 224.575 18.15 223.99 18.15C223.405 18.15 222.93 18.6246 222.93 19.21C222.93 19.7954 223.405 20.27 223.99 20.27Z" fill="white"/>
<path d="M244.26 20.27C244.845 20.27 245.32 19.7954 245.32 19.21C245.32 18.6246 244.845 18.15 244.26 18.15C243.675 18.15 243.2 18.6246 243.2 19.21C243.2 19.7954 243.675 20.27 244.26 20.27Z" fill="white"/>
<path d="M264.52 20.27C265.105 20.27 265.58 19.7954 265.58 19.21C265.58 18.6246 265.105 18.15 264.52 18.15C263.935 18.15 263.46 18.6246 263.46 19.21C263.46 19.7954 263.935 20.27 264.52 20.27Z" fill="white"/>
<path d="M284.79 20.27C285.375 20.27 285.85 19.7954 285.85 19.21C285.85 18.6246 285.375 18.15 284.79 18.15C284.205 18.15 283.73 18.6246 283.73 19.21C283.73 19.7954 284.205 20.27 284.79 20.27Z" fill="white"/>
<path d="M305.05 20.27C305.635 20.27 306.11 19.7954 306.11 19.21C306.11 18.6246 305.635 18.15 305.05 18.15C304.465 18.15 303.99 18.6246 303.99 19.21C303.99 19.7954 304.465 20.27 305.05 20.27Z" fill="white"/>
<path d="M325.32 20.27C325.905 20.27 326.38 19.7954 326.38 19.21C326.38 18.6246 325.905 18.15 325.32 18.15C324.735 18.15 324.26 18.6246 324.26 19.21C324.26 19.7954 324.735 20.27 325.32 20.27Z" fill="white"/>
<path d="M345.59 20.27C346.175 20.27 346.65 19.7954 346.65 19.21C346.65 18.6246 346.175 18.15 345.59 18.15C345.005 18.15 344.53 18.6246 344.53 19.21C344.53 19.7954 345.005 20.27 345.59 20.27Z" fill="white"/>
<path d="M366.91 19.21C366.91 19.79 366.44 20.27 365.85 20.27C365.27 20.27 364.79 19.8 364.79 19.21C364.79 18.62 365.26 18.15 365.85 18.15C366.44 18.15 366.91 18.62 366.91 19.21Z" fill="white"/>
<path d="M386.12 20.27C386.706 20.27 387.18 19.7954 387.18 19.21C387.18 18.6246 386.706 18.15 386.12 18.15C385.535 18.15 385.06 18.6246 385.06 19.21C385.06 19.7954 385.535 20.27 386.12 20.27Z" fill="white"/>
<path d="M1.06 38.42C1.64542 38.42 2.12 37.9455 2.12 37.36C2.12 36.7746 1.64542 36.3 1.06 36.3C0.47458 36.3 0 36.7746 0 37.36C0 37.9455 0.47458 38.42 1.06 38.42Z" fill="white"/>
<path d="M21.32 38.42C21.9054 38.42 22.38 37.9455 22.38 37.36C22.38 36.7746 21.9054 36.3 21.32 36.3C20.7346 36.3 20.26 36.7746 20.26 37.36C20.26 37.9455 20.7346 38.42 21.32 38.42Z" fill="white"/>
<path d="M41.59 38.42C42.1754 38.42 42.65 37.9455 42.65 37.36C42.65 36.7746 42.1754 36.3 41.59 36.3C41.0046 36.3 40.53 36.7746 40.53 37.36C40.53 37.9455 41.0046 38.42 41.59 38.42Z" fill="white"/>
<path d="M61.86 38.42C62.4454 38.42 62.92 37.9455 62.92 37.36C62.92 36.7746 62.4454 36.3 61.86 36.3C61.2746 36.3 60.8 36.7746 60.8 37.36C60.8 37.9455 61.2746 38.42 61.86 38.42Z" fill="white"/>
<path d="M82.1201 38.42C82.7055 38.42 83.1801 37.9455 83.1801 37.36C83.1801 36.7746 82.7055 36.3 82.1201 36.3C81.5346 36.3 81.0601 36.7746 81.0601 37.36C81.0601 37.9455 81.5346 38.42 82.1201 38.42Z" fill="white"/>
<path d="M103.45 37.36C103.45 37.94 102.98 38.42 102.39 38.42C101.81 38.42 101.33 37.95 101.33 37.36C101.33 36.77 101.8 36.3 102.39 36.3C102.97 36.3 103.45 36.77 103.45 37.36Z" fill="white"/>
<path d="M122.66 38.42C123.245 38.42 123.72 37.9455 123.72 37.36C123.72 36.7746 123.245 36.3 122.66 36.3C122.075 36.3 121.6 36.7746 121.6 37.36C121.6 37.9455 122.075 38.42 122.66 38.42Z" fill="white"/>
<path d="M142.92 38.42C143.505 38.42 143.98 37.9455 143.98 37.36C143.98 36.7746 143.505 36.3 142.92 36.3C142.335 36.3 141.86 36.7746 141.86 37.36C141.86 37.9455 142.335 38.42 142.92 38.42Z" fill="white"/>
<path d="M163.19 38.42C163.775 38.42 164.25 37.9455 164.25 37.36C164.25 36.7746 163.775 36.3 163.19 36.3C162.605 36.3 162.13 36.7746 162.13 37.36C162.13 37.9455 162.605 38.42 163.19 38.42Z" fill="white"/>
<path d="M183.46 38.42C184.045 38.42 184.52 37.9455 184.52 37.36C184.52 36.7746 184.045 36.3 183.46 36.3C182.875 36.3 182.4 36.7746 182.4 37.36C182.4 37.9455 182.875 38.42 183.46 38.42Z" fill="white"/>
<path d="M204.78 37.36C204.78 37.94 204.31 38.42 203.72 38.42C203.14 38.42 202.66 37.95 202.66 37.36C202.66 36.77 203.13 36.3 203.72 36.3C204.31 36.3 204.78 36.77 204.78 37.36Z" fill="white"/>
<path d="M223.99 38.42C224.575 38.42 225.05 37.9455 225.05 37.36C225.05 36.7746 224.575 36.3 223.99 36.3C223.405 36.3 222.93 36.7746 222.93 37.36C222.93 37.9455 223.405 38.42 223.99 38.42Z" fill="white"/>
<path d="M244.26 38.42C244.845 38.42 245.32 37.9455 245.32 37.36C245.32 36.7746 244.845 36.3 244.26 36.3C243.675 36.3 243.2 36.7746 243.2 37.36C243.2 37.9455 243.675 38.42 244.26 38.42Z" fill="white"/>
<path d="M264.52 38.42C265.105 38.42 265.58 37.9455 265.58 37.36C265.58 36.7746 265.105 36.3 264.52 36.3C263.935 36.3 263.46 36.7746 263.46 37.36C263.46 37.9455 263.935 38.42 264.52 38.42Z" fill="white"/>
<path d="M284.79 38.42C285.375 38.42 285.85 37.9455 285.85 37.36C285.85 36.7746 285.375 36.3 284.79 36.3C284.205 36.3 283.73 36.7746 283.73 37.36C283.73 37.9455 284.205 38.42 284.79 38.42Z" fill="white"/>
<path d="M305.05 38.42C305.635 38.42 306.11 37.9455 306.11 37.36C306.11 36.7746 305.635 36.3 305.05 36.3C304.465 36.3 303.99 36.7746 303.99 37.36C303.99 37.9455 304.465 38.42 305.05 38.42Z" fill="white"/>
<path d="M325.32 38.42C325.905 38.42 326.38 37.9455 326.38 37.36C326.38 36.7746 325.905 36.3 325.32 36.3C324.735 36.3 324.26 36.7746 324.26 37.36C324.26 37.9455 324.735 38.42 325.32 38.42Z" fill="white"/>
<path d="M345.59 38.42C346.175 38.42 346.65 37.9455 346.65 37.36C346.65 36.7746 346.175 36.3 345.59 36.3C345.005 36.3 344.53 36.7746 344.53 37.36C344.53 37.9455 345.005 38.42 345.59 38.42Z" fill="white"/>
<path d="M366.91 37.36C366.91 37.94 366.44 38.42 365.85 38.42C365.27 38.42 364.79 37.95 364.79 37.36C364.79 36.77 365.26 36.3 365.85 36.3C366.44 36.3 366.91 36.77 366.91 37.36Z" fill="white"/>
<path d="M386.12 38.42C386.706 38.42 387.18 37.9455 387.18 37.36C387.18 36.7746 386.706 36.3 386.12 36.3C385.535 36.3 385.06 36.7746 385.06 37.36C385.06 37.9455 385.535 38.42 386.12 38.42Z" fill="white"/>
<path d="M1.06 56.5699C1.64542 56.5699 2.12 56.0954 2.12 55.5099C2.12 54.9245 1.64542 54.45 1.06 54.45C0.47458 54.45 0 54.9245 0 55.5099C0 56.0954 0.47458 56.5699 1.06 56.5699Z" fill="white"/>
<path d="M21.32 56.5699C21.9054 56.5699 22.38 56.0954 22.38 55.5099C22.38 54.9245 21.9054 54.45 21.32 54.45C20.7346 54.45 20.26 54.9245 20.26 55.5099C20.26 56.0954 20.7346 56.5699 21.32 56.5699Z" fill="white"/>
<path d="M41.59 56.5699C42.1754 56.5699 42.65 56.0954 42.65 55.5099C42.65 54.9245 42.1754 54.45 41.59 54.45C41.0046 54.45 40.53 54.9245 40.53 55.5099C40.53 56.0954 41.0046 56.5699 41.59 56.5699Z" fill="white"/>
<path d="M61.86 56.5699C62.4454 56.5699 62.92 56.0954 62.92 55.5099C62.92 54.9245 62.4454 54.45 61.86 54.45C61.2746 54.45 60.8 54.9245 60.8 55.5099C60.8 56.0954 61.2746 56.5699 61.86 56.5699Z" fill="white"/>
<path d="M82.1201 56.5699C82.7055 56.5699 83.1801 56.0954 83.1801 55.5099C83.1801 54.9245 82.7055 54.45 82.1201 54.45C81.5346 54.45 81.0601 54.9245 81.0601 55.5099C81.0601 56.0954 81.5346 56.5699 82.1201 56.5699Z" fill="white"/>
<path d="M103.45 55.5099C103.45 56.0899 102.98 56.5699 102.39 56.5699C101.81 56.5699 101.33 56.0999 101.33 55.5099C101.33 54.9199 101.8 54.45 102.39 54.45C102.97 54.45 103.45 54.9299 103.45 55.5099Z" fill="white"/>
<path d="M122.66 56.5699C123.245 56.5699 123.72 56.0954 123.72 55.5099C123.72 54.9245 123.245 54.45 122.66 54.45C122.075 54.45 121.6 54.9245 121.6 55.5099C121.6 56.0954 122.075 56.5699 122.66 56.5699Z" fill="white"/>
<path d="M142.92 56.5699C143.505 56.5699 143.98 56.0954 143.98 55.5099C143.98 54.9245 143.505 54.45 142.92 54.45C142.335 54.45 141.86 54.9245 141.86 55.5099C141.86 56.0954 142.335 56.5699 142.92 56.5699Z" fill="white"/>
<path d="M163.19 56.5699C163.775 56.5699 164.25 56.0954 164.25 55.5099C164.25 54.9245 163.775 54.45 163.19 54.45C162.605 54.45 162.13 54.9245 162.13 55.5099C162.13 56.0954 162.605 56.5699 163.19 56.5699Z" fill="white"/>
<path d="M183.46 56.5699C184.045 56.5699 184.52 56.0954 184.52 55.5099C184.52 54.9245 184.045 54.45 183.46 54.45C182.875 54.45 182.4 54.9245 182.4 55.5099C182.4 56.0954 182.875 56.5699 183.46 56.5699Z" fill="white"/>
<path d="M204.78 55.5099C204.78 56.0899 204.31 56.5699 203.72 56.5699C203.14 56.5699 202.66 56.0999 202.66 55.5099C202.66 54.9199 203.13 54.45 203.72 54.45C204.31 54.45 204.78 54.9299 204.78 55.5099Z" fill="white"/>
<path d="M223.99 56.5699C224.575 56.5699 225.05 56.0954 225.05 55.5099C225.05 54.9245 224.575 54.45 223.99 54.45C223.405 54.45 222.93 54.9245 222.93 55.5099C222.93 56.0954 223.405 56.5699 223.99 56.5699Z" fill="white"/>
<path d="M244.26 56.5699C244.845 56.5699 245.32 56.0954 245.32 55.5099C245.32 54.9245 244.845 54.45 244.26 54.45C243.675 54.45 243.2 54.9245 243.2 55.5099C243.2 56.0954 243.675 56.5699 244.26 56.5699Z" fill="white"/>
<path d="M264.52 56.5699C265.105 56.5699 265.58 56.0954 265.58 55.5099C265.58 54.9245 265.105 54.45 264.52 54.45C263.935 54.45 263.46 54.9245 263.46 55.5099C263.46 56.0954 263.935 56.5699 264.52 56.5699Z" fill="white"/>
<path d="M284.79 56.5699C285.375 56.5699 285.85 56.0954 285.85 55.5099C285.85 54.9245 285.375 54.45 284.79 54.45C284.205 54.45 283.73 54.9245 283.73 55.5099C283.73 56.0954 284.205 56.5699 284.79 56.5699Z" fill="white"/>
<path d="M305.05 56.5699C305.635 56.5699 306.11 56.0954 306.11 55.5099C306.11 54.9245 305.635 54.45 305.05 54.45C304.465 54.45 303.99 54.9245 303.99 55.5099C303.99 56.0954 304.465 56.5699 305.05 56.5699Z" fill="white"/>
<path d="M325.32 56.5699C325.905 56.5699 326.38 56.0954 326.38 55.5099C326.38 54.9245 325.905 54.45 325.32 54.45C324.735 54.45 324.26 54.9245 324.26 55.5099C324.26 56.0954 324.735 56.5699 325.32 56.5699Z" fill="white"/>
<path d="M345.59 56.5699C346.175 56.5699 346.65 56.0954 346.65 55.5099C346.65 54.9245 346.175 54.45 345.59 54.45C345.005 54.45 344.53 54.9245 344.53 55.5099C344.53 56.0954 345.005 56.5699 345.59 56.5699Z" fill="white"/>
<path d="M366.91 55.5099C366.91 56.0899 366.44 56.5699 365.85 56.5699C365.27 56.5699 364.79 56.0999 364.79 55.5099C364.79 54.9199 365.26 54.45 365.85 54.45C366.44 54.45 366.91 54.9299 366.91 55.5099Z" fill="white"/>
<path d="M386.12 56.5699C386.706 56.5699 387.18 56.0954 387.18 55.5099C387.18 54.9245 386.706 54.45 386.12 54.45C385.535 54.45 385.06 54.9245 385.06 55.5099C385.06 56.0954 385.535 56.5699 386.12 56.5699Z" fill="white"/>
<path d="M1.06 74.72C1.64542 74.72 2.12 74.2454 2.12 73.66C2.12 73.0746 1.64542 72.6 1.06 72.6C0.47458 72.6 0 73.0746 0 73.66C0 74.2454 0.47458 74.72 1.06 74.72Z" fill="white"/>
<path d="M21.32 74.72C21.9054 74.72 22.38 74.2454 22.38 73.66C22.38 73.0746 21.9054 72.6 21.32 72.6C20.7346 72.6 20.26 73.0746 20.26 73.66C20.26 74.2454 20.7346 74.72 21.32 74.72Z" fill="white"/>
<path d="M41.59 74.72C42.1754 74.72 42.65 74.2454 42.65 73.66C42.65 73.0746 42.1754 72.6 41.59 72.6C41.0046 72.6 40.53 73.0746 40.53 73.66C40.53 74.2454 41.0046 74.72 41.59 74.72Z" fill="white"/>
<path d="M61.86 74.72C62.4454 74.72 62.92 74.2454 62.92 73.66C62.92 73.0746 62.4454 72.6 61.86 72.6C61.2746 72.6 60.8 73.0746 60.8 73.66C60.8 74.2454 61.2746 74.72 61.86 74.72Z" fill="white"/>
<path d="M82.1201 74.72C82.7055 74.72 83.1801 74.2454 83.1801 73.66C83.1801 73.0746 82.7055 72.6 82.1201 72.6C81.5346 72.6 81.0601 73.0746 81.0601 73.66C81.0601 74.2454 81.5346 74.72 82.1201 74.72Z" fill="white"/>
<path d="M103.45 73.66C103.45 74.24 102.98 74.72 102.39 74.72C101.81 74.72 101.33 74.25 101.33 73.66C101.33 73.07 101.8 72.6 102.39 72.6C102.97 72.6 103.45 73.08 103.45 73.66Z" fill="white"/>
<path d="M122.66 74.72C123.245 74.72 123.72 74.2454 123.72 73.66C123.72 73.0746 123.245 72.6 122.66 72.6C122.075 72.6 121.6 73.0746 121.6 73.66C121.6 74.2454 122.075 74.72 122.66 74.72Z" fill="white"/>
<path d="M142.92 74.72C143.505 74.72 143.98 74.2454 143.98 73.66C143.98 73.0746 143.505 72.6 142.92 72.6C142.335 72.6 141.86 73.0746 141.86 73.66C141.86 74.2454 142.335 74.72 142.92 74.72Z" fill="white"/>
<path d="M163.19 74.72C163.775 74.72 164.25 74.2454 164.25 73.66C164.25 73.0746 163.775 72.6 163.19 72.6C162.605 72.6 162.13 73.0746 162.13 73.66C162.13 74.2454 162.605 74.72 163.19 74.72Z" fill="white"/>
<path d="M183.46 74.72C184.045 74.72 184.52 74.2454 184.52 73.66C184.52 73.0746 184.045 72.6 183.46 72.6C182.875 72.6 182.4 73.0746 182.4 73.66C182.4 74.2454 182.875 74.72 183.46 74.72Z" fill="white"/>
<path d="M204.78 73.66C204.78 74.24 204.31 74.72 203.72 74.72C203.14 74.72 202.66 74.25 202.66 73.66C202.66 73.07 203.13 72.6 203.72 72.6C204.31 72.6 204.78 73.08 204.78 73.66Z" fill="white"/>
<path d="M223.99 74.72C224.575 74.72 225.05 74.2454 225.05 73.66C225.05 73.0746 224.575 72.6 223.99 72.6C223.405 72.6 222.93 73.0746 222.93 73.66C222.93 74.2454 223.405 74.72 223.99 74.72Z" fill="white"/>
<path d="M244.26 74.72C244.845 74.72 245.32 74.2454 245.32 73.66C245.32 73.0746 244.845 72.6 244.26 72.6C243.675 72.6 243.2 73.0746 243.2 73.66C243.2 74.2454 243.675 74.72 244.26 74.72Z" fill="white"/>
<path d="M264.52 74.72C265.105 74.72 265.58 74.2454 265.58 73.66C265.58 73.0746 265.105 72.6 264.52 72.6C263.935 72.6 263.46 73.0746 263.46 73.66C263.46 74.2454 263.935 74.72 264.52 74.72Z" fill="white"/>
<path d="M284.79 74.72C285.375 74.72 285.85 74.2454 285.85 73.66C285.85 73.0746 285.375 72.6 284.79 72.6C284.205 72.6 283.73 73.0746 283.73 73.66C283.73 74.2454 284.205 74.72 284.79 74.72Z" fill="white"/>
<path d="M305.05 74.72C305.635 74.72 306.11 74.2454 306.11 73.66C306.11 73.0746 305.635 72.6 305.05 72.6C304.465 72.6 303.99 73.0746 303.99 73.66C303.99 74.2454 304.465 74.72 305.05 74.72Z" fill="white"/>
<path d="M325.32 74.72C325.905 74.72 326.38 74.2454 326.38 73.66C326.38 73.0746 325.905 72.6 325.32 72.6C324.735 72.6 324.26 73.0746 324.26 73.66C324.26 74.2454 324.735 74.72 325.32 74.72Z" fill="white"/>
<path d="M345.59 74.72C346.175 74.72 346.65 74.2454 346.65 73.66C346.65 73.0746 346.175 72.6 345.59 72.6C345.005 72.6 344.53 73.0746 344.53 73.66C344.53 74.2454 345.005 74.72 345.59 74.72Z" fill="white"/>
<path d="M366.91 73.66C366.91 74.24 366.44 74.72 365.85 74.72C365.27 74.72 364.79 74.25 364.79 73.66C364.79 73.07 365.26 72.6 365.85 72.6C366.44 72.6 366.91 73.08 366.91 73.66Z" fill="white"/>
<path d="M386.12 74.72C386.706 74.72 387.18 74.2454 387.18 73.66C387.18 73.0746 386.706 72.6 386.12 72.6C385.535 72.6 385.06 73.0746 385.06 73.66C385.06 74.2454 385.535 74.72 386.12 74.72Z" fill="white"/>
<path d="M1.06 92.87C1.64542 92.87 2.12 92.3954 2.12 91.81C2.12 91.2246 1.64542 90.75 1.06 90.75C0.47458 90.75 0 91.2246 0 91.81C0 92.3954 0.47458 92.87 1.06 92.87Z" fill="white"/>
<path d="M21.32 92.87C21.9054 92.87 22.38 92.3954 22.38 91.81C22.38 91.2246 21.9054 90.75 21.32 90.75C20.7346 90.75 20.26 91.2246 20.26 91.81C20.26 92.3954 20.7346 92.87 21.32 92.87Z" fill="white"/>
<path d="M41.59 92.87C42.1754 92.87 42.65 92.3954 42.65 91.81C42.65 91.2246 42.1754 90.75 41.59 90.75C41.0046 90.75 40.53 91.2246 40.53 91.81C40.53 92.3954 41.0046 92.87 41.59 92.87Z" fill="white"/>
<path d="M61.86 92.87C62.4454 92.87 62.92 92.3954 62.92 91.81C62.92 91.2246 62.4454 90.75 61.86 90.75C61.2746 90.75 60.8 91.2246 60.8 91.81C60.8 92.3954 61.2746 92.87 61.86 92.87Z" fill="white"/>
<path d="M82.1201 92.87C82.7055 92.87 83.1801 92.3954 83.1801 91.81C83.1801 91.2246 82.7055 90.75 82.1201 90.75C81.5346 90.75 81.0601 91.2246 81.0601 91.81C81.0601 92.3954 81.5346 92.87 82.1201 92.87Z" fill="white"/>
<path d="M103.45 91.81C103.45 92.39 102.98 92.87 102.39 92.87C101.81 92.87 101.33 92.4 101.33 91.81C101.33 91.22 101.8 90.75 102.39 90.75C102.97 90.76 103.45 91.23 103.45 91.81Z" fill="white"/>
<path d="M122.66 92.87C123.245 92.87 123.72 92.3954 123.72 91.81C123.72 91.2246 123.245 90.75 122.66 90.75C122.075 90.75 121.6 91.2246 121.6 91.81C121.6 92.3954 122.075 92.87 122.66 92.87Z" fill="white"/>
<path d="M142.92 92.87C143.505 92.87 143.98 92.3954 143.98 91.81C143.98 91.2246 143.505 90.75 142.92 90.75C142.335 90.75 141.86 91.2246 141.86 91.81C141.86 92.3954 142.335 92.87 142.92 92.87Z" fill="white"/>
<path d="M163.19 92.87C163.775 92.87 164.25 92.3954 164.25 91.81C164.25 91.2246 163.775 90.75 163.19 90.75C162.605 90.75 162.13 91.2246 162.13 91.81C162.13 92.3954 162.605 92.87 163.19 92.87Z" fill="white"/>
<path d="M183.46 92.87C184.045 92.87 184.52 92.3954 184.52 91.81C184.52 91.2246 184.045 90.75 183.46 90.75C182.875 90.75 182.4 91.2246 182.4 91.81C182.4 92.3954 182.875 92.87 183.46 92.87Z" fill="white"/>
<path d="M204.78 91.81C204.78 92.39 204.31 92.87 203.72 92.87C203.14 92.87 202.66 92.4 202.66 91.81C202.66 91.22 203.13 90.75 203.72 90.75C204.31 90.76 204.78 91.23 204.78 91.81Z" fill="white"/>
<path d="M223.99 92.87C224.575 92.87 225.05 92.3954 225.05 91.81C225.05 91.2246 224.575 90.75 223.99 90.75C223.405 90.75 222.93 91.2246 222.93 91.81C222.93 92.3954 223.405 92.87 223.99 92.87Z" fill="white"/>
<path d="M244.26 92.87C244.845 92.87 245.32 92.3954 245.32 91.81C245.32 91.2246 244.845 90.75 244.26 90.75C243.675 90.75 243.2 91.2246 243.2 91.81C243.2 92.3954 243.675 92.87 244.26 92.87Z" fill="white"/>
<path d="M264.52 92.87C265.105 92.87 265.58 92.3954 265.58 91.81C265.58 91.2246 265.105 90.75 264.52 90.75C263.935 90.75 263.46 91.2246 263.46 91.81C263.46 92.3954 263.935 92.87 264.52 92.87Z" fill="white"/>
<path d="M284.79 92.87C285.375 92.87 285.85 92.3954 285.85 91.81C285.85 91.2246 285.375 90.75 284.79 90.75C284.205 90.75 283.73 91.2246 283.73 91.81C283.73 92.3954 284.205 92.87 284.79 92.87Z" fill="white"/>
<path d="M305.05 92.87C305.635 92.87 306.11 92.3954 306.11 91.81C306.11 91.2246 305.635 90.75 305.05 90.75C304.465 90.75 303.99 91.2246 303.99 91.81C303.99 92.3954 304.465 92.87 305.05 92.87Z" fill="white"/>
<path d="M325.32 92.87C325.905 92.87 326.38 92.3954 326.38 91.81C326.38 91.2246 325.905 90.75 325.32 90.75C324.735 90.75 324.26 91.2246 324.26 91.81C324.26 92.3954 324.735 92.87 325.32 92.87Z" fill="white"/>
<path d="M345.59 92.87C346.175 92.87 346.65 92.3954 346.65 91.81C346.65 91.2246 346.175 90.75 345.59 90.75C345.005 90.75 344.53 91.2246 344.53 91.81C344.53 92.3954 345.005 92.87 345.59 92.87Z" fill="white"/>
<path d="M366.91 91.81C366.91 92.39 366.44 92.87 365.85 92.87C365.27 92.87 364.79 92.4 364.79 91.81C364.79 91.22 365.26 90.75 365.85 90.75C366.44 90.76 366.91 91.23 366.91 91.81Z" fill="white"/>
<path d="M386.12 92.87C386.706 92.87 387.18 92.3954 387.18 91.81C387.18 91.2246 386.706 90.75 386.12 90.75C385.535 90.75 385.06 91.2246 385.06 91.81C385.06 92.3954 385.535 92.87 386.12 92.87Z" fill="white"/>
<path d="M1.06 111.02C1.64542 111.02 2.12 110.545 2.12 109.96C2.12 109.375 1.64542 108.9 1.06 108.9C0.47458 108.9 0 109.375 0 109.96C0 110.545 0.47458 111.02 1.06 111.02Z" fill="white"/>
<path d="M21.32 111.02C21.9054 111.02 22.38 110.545 22.38 109.96C22.38 109.375 21.9054 108.9 21.32 108.9C20.7346 108.9 20.26 109.375 20.26 109.96C20.26 110.545 20.7346 111.02 21.32 111.02Z" fill="white"/>
<path d="M41.59 111.02C42.1754 111.02 42.65 110.545 42.65 109.96C42.65 109.375 42.1754 108.9 41.59 108.9C41.0046 108.9 40.53 109.375 40.53 109.96C40.53 110.545 41.0046 111.02 41.59 111.02Z" fill="white"/>
<path d="M61.86 111.02C62.4454 111.02 62.92 110.545 62.92 109.96C62.92 109.375 62.4454 108.9 61.86 108.9C61.2746 108.9 60.8 109.375 60.8 109.96C60.8 110.545 61.2746 111.02 61.86 111.02Z" fill="white"/>
<path d="M82.1201 111.02C82.7055 111.02 83.1801 110.545 83.1801 109.96C83.1801 109.375 82.7055 108.9 82.1201 108.9C81.5346 108.9 81.0601 109.375 81.0601 109.96C81.0601 110.545 81.5346 111.02 82.1201 111.02Z" fill="white"/>
<path d="M103.45 109.96C103.45 110.54 102.98 111.02 102.39 111.02C101.81 111.02 101.33 110.55 101.33 109.96C101.33 109.37 101.8 108.9 102.39 108.9C102.97 108.91 103.45 109.38 103.45 109.96Z" fill="white"/>
<path d="M122.66 111.02C123.245 111.02 123.72 110.545 123.72 109.96C123.72 109.375 123.245 108.9 122.66 108.9C122.075 108.9 121.6 109.375 121.6 109.96C121.6 110.545 122.075 111.02 122.66 111.02Z" fill="white"/>
<path d="M142.92 111.02C143.505 111.02 143.98 110.545 143.98 109.96C143.98 109.375 143.505 108.9 142.92 108.9C142.335 108.9 141.86 109.375 141.86 109.96C141.86 110.545 142.335 111.02 142.92 111.02Z" fill="white"/>
<path d="M163.19 111.02C163.775 111.02 164.25 110.545 164.25 109.96C164.25 109.375 163.775 108.9 163.19 108.9C162.605 108.9 162.13 109.375 162.13 109.96C162.13 110.545 162.605 111.02 163.19 111.02Z" fill="white"/>
<path d="M183.46 111.02C184.045 111.02 184.52 110.545 184.52 109.96C184.52 109.375 184.045 108.9 183.46 108.9C182.875 108.9 182.4 109.375 182.4 109.96C182.4 110.545 182.875 111.02 183.46 111.02Z" fill="white"/>
<path d="M204.78 109.96C204.78 110.54 204.31 111.02 203.72 111.02C203.14 111.02 202.66 110.55 202.66 109.96C202.66 109.37 203.13 108.9 203.72 108.9C204.31 108.91 204.78 109.38 204.78 109.96Z" fill="white"/>
<path d="M223.99 111.02C224.575 111.02 225.05 110.545 225.05 109.96C225.05 109.375 224.575 108.9 223.99 108.9C223.405 108.9 222.93 109.375 222.93 109.96C222.93 110.545 223.405 111.02 223.99 111.02Z" fill="white"/>
<path d="M244.26 111.02C244.845 111.02 245.32 110.545 245.32 109.96C245.32 109.375 244.845 108.9 244.26 108.9C243.675 108.9 243.2 109.375 243.2 109.96C243.2 110.545 243.675 111.02 244.26 111.02Z" fill="white"/>
<path d="M264.52 111.02C265.105 111.02 265.58 110.545 265.58 109.96C265.58 109.375 265.105 108.9 264.52 108.9C263.935 108.9 263.46 109.375 263.46 109.96C263.46 110.545 263.935 111.02 264.52 111.02Z" fill="white"/>
<path d="M284.79 111.02C285.375 111.02 285.85 110.545 285.85 109.96C285.85 109.375 285.375 108.9 284.79 108.9C284.205 108.9 283.73 109.375 283.73 109.96C283.73 110.545 284.205 111.02 284.79 111.02Z" fill="white"/>
<path d="M305.05 111.02C305.635 111.02 306.11 110.545 306.11 109.96C306.11 109.375 305.635 108.9 305.05 108.9C304.465 108.9 303.99 109.375 303.99 109.96C303.99 110.545 304.465 111.02 305.05 111.02Z" fill="white"/>
<path d="M325.32 111.02C325.905 111.02 326.38 110.545 326.38 109.96C326.38 109.375 325.905 108.9 325.32 108.9C324.735 108.9 324.26 109.375 324.26 109.96C324.26 110.545 324.735 111.02 325.32 111.02Z" fill="white"/>
<path d="M345.59 111.02C346.175 111.02 346.65 110.545 346.65 109.96C346.65 109.375 346.175 108.9 345.59 108.9C345.005 108.9 344.53 109.375 344.53 109.96C344.53 110.545 345.005 111.02 345.59 111.02Z" fill="white"/>
<path d="M366.91 109.96C366.91 110.54 366.44 111.02 365.85 111.02C365.27 111.02 364.79 110.55 364.79 109.96C364.79 109.37 365.26 108.9 365.85 108.9C366.44 108.91 366.91 109.38 366.91 109.96Z" fill="white"/>
<path d="M386.12 111.02C386.706 111.02 387.18 110.545 387.18 109.96C387.18 109.375 386.706 108.9 386.12 108.9C385.535 108.9 385.06 109.375 385.06 109.96C385.06 110.545 385.535 111.02 386.12 111.02Z" fill="white"/>
<path d="M1.06 129.18C1.64542 129.18 2.12 128.705 2.12 128.12C2.12 127.535 1.64542 127.06 1.06 127.06C0.47458 127.06 0 127.535 0 128.12C0 128.705 0.47458 129.18 1.06 129.18Z" fill="white"/>
<path d="M21.32 129.18C21.9054 129.18 22.38 128.705 22.38 128.12C22.38 127.535 21.9054 127.06 21.32 127.06C20.7346 127.06 20.26 127.535 20.26 128.12C20.26 128.705 20.7346 129.18 21.32 129.18Z" fill="white"/>
<path d="M41.59 129.18C42.1754 129.18 42.65 128.705 42.65 128.12C42.65 127.535 42.1754 127.06 41.59 127.06C41.0046 127.06 40.53 127.535 40.53 128.12C40.53 128.705 41.0046 129.18 41.59 129.18Z" fill="white"/>
<path d="M61.86 129.18C62.4454 129.18 62.92 128.705 62.92 128.12C62.92 127.535 62.4454 127.06 61.86 127.06C61.2746 127.06 60.8 127.535 60.8 128.12C60.8 128.705 61.2746 129.18 61.86 129.18Z" fill="white"/>
<path d="M82.1201 129.18C82.7055 129.18 83.1801 128.705 83.1801 128.12C83.1801 127.535 82.7055 127.06 82.1201 127.06C81.5346 127.06 81.0601 127.535 81.0601 128.12C81.0601 128.705 81.5346 129.18 82.1201 129.18Z" fill="white"/>
<path d="M103.45 128.12C103.45 128.7 102.98 129.18 102.39 129.18C101.81 129.18 101.33 128.71 101.33 128.12C101.33 127.53 101.8 127.06 102.39 127.06C102.97 127.06 103.45 127.53 103.45 128.12Z" fill="white"/>
<path d="M122.66 129.18C123.245 129.18 123.72 128.705 123.72 128.12C123.72 127.535 123.245 127.06 122.66 127.06C122.075 127.06 121.6 127.535 121.6 128.12C121.6 128.705 122.075 129.18 122.66 129.18Z" fill="white"/>
<path d="M142.92 129.18C143.505 129.18 143.98 128.705 143.98 128.12C143.98 127.535 143.505 127.06 142.92 127.06C142.335 127.06 141.86 127.535 141.86 128.12C141.86 128.705 142.335 129.18 142.92 129.18Z" fill="white"/>
<path d="M163.19 129.18C163.775 129.18 164.25 128.705 164.25 128.12C164.25 127.535 163.775 127.06 163.19 127.06C162.605 127.06 162.13 127.535 162.13 128.12C162.13 128.705 162.605 129.18 163.19 129.18Z" fill="white"/>
<path d="M183.46 129.18C184.045 129.18 184.52 128.705 184.52 128.12C184.52 127.535 184.045 127.06 183.46 127.06C182.875 127.06 182.4 127.535 182.4 128.12C182.4 128.705 182.875 129.18 183.46 129.18Z" fill="white"/>
<path d="M204.78 128.12C204.78 128.7 204.31 129.18 203.72 129.18C203.14 129.18 202.66 128.71 202.66 128.12C202.66 127.53 203.13 127.06 203.72 127.06C204.31 127.06 204.78 127.53 204.78 128.12Z" fill="white"/>
<path d="M223.99 129.18C224.575 129.18 225.05 128.705 225.05 128.12C225.05 127.535 224.575 127.06 223.99 127.06C223.405 127.06 222.93 127.535 222.93 128.12C222.93 128.705 223.405 129.18 223.99 129.18Z" fill="white"/>
<path d="M244.26 129.18C244.845 129.18 245.32 128.705 245.32 128.12C245.32 127.535 244.845 127.06 244.26 127.06C243.675 127.06 243.2 127.535 243.2 128.12C243.2 128.705 243.675 129.18 244.26 129.18Z" fill="white"/>
<path d="M264.52 129.18C265.105 129.18 265.58 128.705 265.58 128.12C265.58 127.535 265.105 127.06 264.52 127.06C263.935 127.06 263.46 127.535 263.46 128.12C263.46 128.705 263.935 129.18 264.52 129.18Z" fill="white"/>
<path d="M284.79 129.18C285.375 129.18 285.85 128.705 285.85 128.12C285.85 127.535 285.375 127.06 284.79 127.06C284.205 127.06 283.73 127.535 283.73 128.12C283.73 128.705 284.205 129.18 284.79 129.18Z" fill="white"/>
<path d="M305.05 129.18C305.635 129.18 306.11 128.705 306.11 128.12C306.11 127.535 305.635 127.06 305.05 127.06C304.465 127.06 303.99 127.535 303.99 128.12C303.99 128.705 304.465 129.18 305.05 129.18Z" fill="white"/>
<path d="M325.32 129.18C325.905 129.18 326.38 128.705 326.38 128.12C326.38 127.535 325.905 127.06 325.32 127.06C324.735 127.06 324.26 127.535 324.26 128.12C324.26 128.705 324.735 129.18 325.32 129.18Z" fill="white"/>
<path d="M345.59 129.18C346.175 129.18 346.65 128.705 346.65 128.12C346.65 127.535 346.175 127.06 345.59 127.06C345.005 127.06 344.53 127.535 344.53 128.12C344.53 128.705 345.005 129.18 345.59 129.18Z" fill="white"/>
<path d="M366.91 128.12C366.91 128.7 366.44 129.18 365.85 129.18C365.27 129.18 364.79 128.71 364.79 128.12C364.79 127.53 365.26 127.06 365.85 127.06C366.44 127.06 366.91 127.53 366.91 128.12Z" fill="white"/>
<path d="M386.12 129.18C386.706 129.18 387.18 128.705 387.18 128.12C387.18 127.535 386.706 127.06 386.12 127.06C385.535 127.06 385.06 127.535 385.06 128.12C385.06 128.705 385.535 129.18 386.12 129.18Z" fill="white"/>
<path d="M1.06 147.33C1.64542 147.33 2.12 146.855 2.12 146.27C2.12 145.685 1.64542 145.21 1.06 145.21C0.47458 145.21 0 145.685 0 146.27C0 146.855 0.47458 147.33 1.06 147.33Z" fill="white"/>
<path d="M21.32 147.33C21.9054 147.33 22.38 146.855 22.38 146.27C22.38 145.685 21.9054 145.21 21.32 145.21C20.7346 145.21 20.26 145.685 20.26 146.27C20.26 146.855 20.7346 147.33 21.32 147.33Z" fill="white"/>
<path d="M41.59 147.33C42.1754 147.33 42.65 146.855 42.65 146.27C42.65 145.685 42.1754 145.21 41.59 145.21C41.0046 145.21 40.53 145.685 40.53 146.27C40.53 146.855 41.0046 147.33 41.59 147.33Z" fill="white"/>
<path d="M61.86 147.33C62.4454 147.33 62.92 146.855 62.92 146.27C62.92 145.685 62.4454 145.21 61.86 145.21C61.2746 145.21 60.8 145.685 60.8 146.27C60.8 146.855 61.2746 147.33 61.86 147.33Z" fill="white"/>
<path d="M82.1201 147.33C82.7055 147.33 83.1801 146.855 83.1801 146.27C83.1801 145.685 82.7055 145.21 82.1201 145.21C81.5346 145.21 81.0601 145.685 81.0601 146.27C81.0601 146.855 81.5346 147.33 82.1201 147.33Z" fill="white"/>
<path d="M103.45 146.27C103.45 146.85 102.98 147.33 102.39 147.33C101.81 147.33 101.33 146.86 101.33 146.27C101.33 145.68 101.8 145.21 102.39 145.21C102.97 145.21 103.45 145.68 103.45 146.27Z" fill="white"/>
<path d="M122.66 147.33C123.245 147.33 123.72 146.855 123.72 146.27C123.72 145.685 123.245 145.21 122.66 145.21C122.075 145.21 121.6 145.685 121.6 146.27C121.6 146.855 122.075 147.33 122.66 147.33Z" fill="white"/>
<path d="M142.92 147.33C143.505 147.33 143.98 146.855 143.98 146.27C143.98 145.685 143.505 145.21 142.92 145.21C142.335 145.21 141.86 145.685 141.86 146.27C141.86 146.855 142.335 147.33 142.92 147.33Z" fill="white"/>
<path d="M163.19 147.33C163.775 147.33 164.25 146.855 164.25 146.27C164.25 145.685 163.775 145.21 163.19 145.21C162.605 145.21 162.13 145.685 162.13 146.27C162.13 146.855 162.605 147.33 163.19 147.33Z" fill="white"/>
<path d="M183.46 147.33C184.045 147.33 184.52 146.855 184.52 146.27C184.52 145.685 184.045 145.21 183.46 145.21C182.875 145.21 182.4 145.685 182.4 146.27C182.4 146.855 182.875 147.33 183.46 147.33Z" fill="white"/>
<path d="M204.78 146.27C204.78 146.85 204.31 147.33 203.72 147.33C203.14 147.33 202.66 146.86 202.66 146.27C202.66 145.68 203.13 145.21 203.72 145.21C204.31 145.21 204.78 145.68 204.78 146.27Z" fill="white"/>
<path d="M223.99 147.33C224.575 147.33 225.05 146.855 225.05 146.27C225.05 145.685 224.575 145.21 223.99 145.21C223.405 145.21 222.93 145.685 222.93 146.27C222.93 146.855 223.405 147.33 223.99 147.33Z" fill="white"/>
<path d="M244.26 147.33C244.845 147.33 245.32 146.855 245.32 146.27C245.32 145.685 244.845 145.21 244.26 145.21C243.675 145.21 243.2 145.685 243.2 146.27C243.2 146.855 243.675 147.33 244.26 147.33Z" fill="white"/>
<path d="M264.52 147.33C265.105 147.33 265.58 146.855 265.58 146.27C265.58 145.685 265.105 145.21 264.52 145.21C263.935 145.21 263.46 145.685 263.46 146.27C263.46 146.855 263.935 147.33 264.52 147.33Z" fill="white"/>
<path d="M284.79 147.33C285.375 147.33 285.85 146.855 285.85 146.27C285.85 145.685 285.375 145.21 284.79 145.21C284.205 145.21 283.73 145.685 283.73 146.27C283.73 146.855 284.205 147.33 284.79 147.33Z" fill="white"/>
<path d="M305.05 147.33C305.635 147.33 306.11 146.855 306.11 146.27C306.11 145.685 305.635 145.21 305.05 145.21C304.465 145.21 303.99 145.685 303.99 146.27C303.99 146.855 304.465 147.33 305.05 147.33Z" fill="white"/>
<path d="M325.32 147.33C325.905 147.33 326.38 146.855 326.38 146.27C326.38 145.685 325.905 145.21 325.32 145.21C324.735 145.21 324.26 145.685 324.26 146.27C324.26 146.855 324.735 147.33 325.32 147.33Z" fill="white"/>
<path d="M345.59 147.33C346.175 147.33 346.65 146.855 346.65 146.27C346.65 145.685 346.175 145.21 345.59 145.21C345.005 145.21 344.53 145.685 344.53 146.27C344.53 146.855 345.005 147.33 345.59 147.33Z" fill="white"/>
<path d="M366.91 146.27C366.91 146.85 366.44 147.33 365.85 147.33C365.27 147.33 364.79 146.86 364.79 146.27C364.79 145.68 365.26 145.21 365.85 145.21C366.44 145.21 366.91 145.68 366.91 146.27Z" fill="white"/>
<path d="M386.12 147.33C386.706 147.33 387.18 146.855 387.18 146.27C387.18 145.685 386.706 145.21 386.12 145.21C385.535 145.21 385.06 145.685 385.06 146.27C385.06 146.855 385.535 147.33 386.12 147.33Z" fill="white"/>
</svg>
