<?xml version="1.0" encoding="utf-8"?>
<!-- Generator: Adobe Illustrator 26.1.0, SVG Export Plug-In . SVG Version: 6.00 Build 0)  -->
<svg version="1.1" id="Layer_1" xmlns="http://www.w3.org/2000/svg" xmlns:xlink="http://www.w3.org/1999/xlink" x="0px" y="0px" width="1500"
	 viewBox="0 0 1500 416.8" style="enable-background:new 0 0 1500 416.8;" xml:space="preserve">
<style type="text/css">
	.st0{fill:#74B555;}
	.st1{fill:#0E2F50;}
	.st2{display:none;}
	.st3{display:inline;fill:#74B555;}
	.st4{fill:#0F2F51;}
	.st5{fill:#74B553;stroke:#102F50;stroke-width:3;stroke-miterlimit:10;}
	.st6{fill:#0F2F51;stroke:#76B558;stroke-width:3;stroke-miterlimit:10;}
</style>
<rect x="1375.1" y="289.2" class="st0" width="119.5" height="1.3"/>
<g id="infotech_pvt_ltd">
	<g>
		<path class="st0" d="M661.7,270.5h5.8V311h-5.8V270.5z"/>
		<path class="st0" d="M722.4,293.4V311h-5.6v-17c0-6-3-9-8.3-9c-5.9,0-9.7,3.5-9.7,10.2V311h-5.6v-30.7h5.3v4.6
			c2.3-3.1,6.2-4.9,11.1-4.9C717.1,280.1,722.4,284.3,722.4,293.4z"/>
		<path class="st0" d="M753.4,277.7v2.7h8.9v4.6h-8.8V311H748v-26.1h-5.2v-4.6h5.2v-2.7c0-6,3.6-9.9,10.1-9.9c2.4,0,4.7,0.6,6.3,1.8
			l-1.7,4.2c-1.2-0.9-2.7-1.4-4.3-1.4C755.1,272.3,753.4,274.2,753.4,277.7z"/>
		<path class="st0" d="M778.8,295.7c0-9.1,6.8-15.6,16-15.6c9.2,0,15.9,6.5,15.9,15.6c0,9.1-6.7,15.7-15.9,15.7
			C785.6,311.4,778.8,304.8,778.8,295.7z M805.1,295.7c0-6.5-4.4-10.8-10.3-10.8c-5.9,0-10.4,4.2-10.4,10.8s4.5,10.8,10.4,10.8
			C800.7,306.5,805.1,302.2,805.1,295.7z"/>
		<path class="st0" d="M837,275.5h-13.9v-5h33.5v5h-13.9V311H837V275.5z"/>
		<path class="st0" d="M901,297.5h-24.9c0.7,5.4,5,9,11.1,9c3.6,0,6.6-1.2,8.9-3.7l3.1,3.6c-2.8,3.2-7,5-12.1,5
			c-9.9,0-16.5-6.5-16.5-15.7c0-9.1,6.5-15.6,15.4-15.6c8.9,0,15.2,6.4,15.2,15.8C901.2,296.3,901.1,297,901,297.5z M876.2,293.5
			h19.7c-0.6-5.2-4.5-8.8-9.8-8.8C880.7,284.8,876.7,288.3,876.2,293.5z"/>
		<path class="st0" d="M920.5,295.7c0-9.1,6.8-15.6,16.2-15.6c5.5,0,10.1,2.3,12.5,6.5l-4.2,2.7c-2-3-5-4.4-8.3-4.4
			c-6,0-10.5,4.2-10.5,10.8c0,6.7,4.5,10.8,10.5,10.8c3.4,0,6.4-1.4,8.3-4.4l4.2,2.7c-2.4,4.3-7,6.6-12.5,6.6
			C927.3,311.4,920.5,304.8,920.5,295.7z"/>
		<path class="st0" d="M999.6,293.4V311H994v-17c0-6-3-9-8.3-9c-5.9,0-9.7,3.5-9.7,10.2V311h-5.6v-43h5.6v16.6
			c2.3-3,6.1-4.6,10.8-4.6C994.3,280.1,999.6,284.3,999.6,293.4z"/>
		<path class="st0" d="M1087.9,284.6c0,8.8-6.4,14.1-16.9,14.1h-10V311h-5.8v-40.5h15.8C1081.5,270.5,1087.9,275.8,1087.9,284.6z
			 M1082.1,284.6c0-5.8-3.9-9.1-11.3-9.1h-9.8v18.2h9.8C1078.2,293.7,1082.1,290.4,1082.1,284.6z"/>
		<path class="st0" d="M1137.4,280.4L1124,311h-5.7l-13.4-30.7h5.8l10.5,24.6l10.8-24.6H1137.4z"/>
		<path class="st0" d="M1175.2,309.2c-1.7,1.4-4.2,2.1-6.7,2.1c-6.2,0-9.7-3.4-9.7-9.6v-16.8h-5.2v-4.6h5.2v-6.7h5.6v6.7h8.8v4.6
			h-8.8v16.6c0,3.3,1.7,5.2,4.8,5.2c1.6,0,3.2-0.5,4.3-1.4L1175.2,309.2z"/>
		<path class="st0" d="M1227.3,270.5h5.8V306h21.9v5h-27.7V270.5z"/>
		<path class="st0" d="M1292.3,309.2c-1.7,1.4-4.2,2.1-6.7,2.1c-6.2,0-9.7-3.4-9.7-9.6v-16.8h-5.2v-4.6h5.2v-6.7h5.6v6.7h8.8v4.6
			h-8.8v16.6c0,3.3,1.7,5.2,4.8,5.2c1.6,0,3.2-0.5,4.3-1.4L1292.3,309.2z"/>
		<path class="st0" d="M1341.3,268.1v43h-5.3v-4.9c-2.5,3.5-6.4,5.2-10.9,5.2c-9,0-15.5-6.3-15.5-15.7s6.5-15.6,15.5-15.6
			c4.3,0,8.2,1.6,10.7,4.9v-16.9H1341.3z M1335.8,295.7c0-6.5-4.5-10.8-10.3-10.8c-5.9,0-10.4,4.2-10.4,10.8s4.5,10.8,10.4,10.8
			C1331.4,306.5,1335.8,302.2,1335.8,295.7z"/>
	</g>
</g>
<rect x="511.8" y="289.2" class="st0" width="119.5" height="1.3"/>
<g id="WEBERSE">
	<path class="st1" d="M712.9,105.2l-43.8,132.1h-26l-32.7-97.8l-33.2,97.8H551l-43.8-132.1h25.5l32.8,100.4l34.2-100.4h22.7
		l33.4,101l33.8-101H712.9z"/>
	<path class="st1" d="M833,216.8v20.6h-99.1V105.2h96.5v20.6h-71.9v34.4h63.8v20.2h-63.8v36.4H833z"/>
	<path class="st1" d="M978.7,201.5c0,22.7-17.7,35.9-51.7,35.9h-65.7V105.2h61.9c31.7,0,48.7,13.4,48.7,34.4
		c0,13.6-6.8,23.6-17,29.1C969.1,173.2,978.7,184.3,978.7,201.5z M885.8,124.5v36.4h34.7c17,0,26.6-6,26.6-18.1
		c0-12.3-9.6-18.3-26.6-18.3H885.8z M954,199.1c0-13.2-10-19.1-28.5-19.1h-39.6v38.1h39.6C944,218.1,954,212.3,954,199.1z"/>
	<path class="st1" d="M1105,216.8v20.6h-99.1V105.2h96.5v20.6h-71.9v34.4h63.8v20.2h-63.8v36.4H1105z"/>
	<path class="st1" d="M1219.8,237.4l-27-38.7c-1.7,0.2-3.4,0.2-5.1,0.2h-29.8v38.5h-24.5V105.2h54.4c34.7,0,56.3,17.7,56.3,47
		c0,20-10.2,34.7-28.1,41.7l30.4,43.4H1219.8z M1186.5,126h-28.7v52.7h28.7c21.5,0,32.7-9.8,32.7-26.4
		C1219.2,135.6,1208.1,126,1186.5,126z"/>
	<path class="st1" d="M1261.1,223.4l8.5-19.1c10.6,8.5,27.4,14.5,43.6,14.5c20.6,0,29.3-7.4,29.3-17.2c0-28.5-78.5-9.8-78.5-58.9
		c0-21.3,17-39.5,53.2-39.5c15.9,0,32.5,4.2,44,11.7l-7.7,19.1c-11.9-7-24.9-10.4-36.4-10.4c-20.4,0-28.7,7.9-28.7,17.9
		c0,28.1,78.3,9.8,78.3,58.3c0,21.1-17.2,39.3-53.4,39.3C1292.6,239.3,1272,232.8,1261.1,223.4z"/>
	<path class="st1" d="M1491,216.8v20.6h-99.1V105.2h96.5v20.6h-71.9v34.4h63.8v20.2h-63.8v36.4H1491z"/>
</g>
<rect id="line" x="452.1" y="6" class="st0" width="3.3" height="399.8"/>
<g id="pc">
	<rect x="110.8" y="376.9" class="st1" width="170.3" height="8"/>
	<polygon class="st1" points="150.6,337.9 135.4,371.3 257.2,371.3 242.1,337.9 	"/>
	<path class="st1" d="M364.7,164.5v123.2c0,12.1-9.8,21.9-21.9,21.9H48.3c-12.1,0-21.9-9.8-21.9-21.9V100.1
		c0-12.1,9.8-21.9,21.9-21.9h231.6V58.3H48.3c-23,0-41.8,18.7-41.8,41.8v187.7c0,23,18.7,41.8,41.8,41.8h294.5
		c23,0,41.8-18.7,41.8-41.8V164.5H364.7z"/>
	<g id="shapes">
		<g>
			<g>
				<rect x="300.1" y="58.1" class="st0" width="26.1" height="26.1"/>
			</g>
			<g>
				<rect x="364.3" y="119.2" class="st0" width="27.3" height="27.3"/>
			</g>
			<g>
				<rect x="347.4" y="76.8" class="st0" width="21.4" height="21.4"/>
			</g>
			<g>
				<rect x="388.1" y="88.4" class="st0" width="16.6" height="16.6"/>
			</g>
			<g>
				<rect x="337" y="51.8" class="st0" width="11.9" height="11.9"/>
			</g>
			<g>
				<rect x="384.5" y="64.6" class="st0" width="8.3" height="8.3"/>
			</g>
			<g>
				<rect x="393.9" y="36.2" class="st0" width="9.5" height="9.5"/>
			</g>
			<g class="st2">
				<rect x="318.6" y="121.8" class="st3" width="15.4" height="15.4"/>
			</g>
			<g>
				<rect x="330.7" y="25.5" class="st0" width="10.7" height="10.7"/>
			</g>
			<g>
				<rect x="358.4" y="38.8" class="st0" width="14.2" height="14.2"/>
			</g>
			<g>
				<rect x="309.1" y="38.7" class="st0" width="8.3" height="8.3"/>
			</g>
			<g class="st2">
				<rect x="352.5" y="107.2" class="st3" width="8.3" height="8.3"/>
			</g>
		</g>
	</g>
</g>
<g id="w">
	<path id="_x3C_Path_x3E_" class="st0" d="M54.5,264.3l17.2-5.2l59-21.4l14.6,38.9h3.2l26.3-56.4l33.4-13.6l32.4,70h3.9l38.2-103.1
		l40.5-20.4L54.5,264.3z M240.2,204.1l-3.6-9.6l7.2-3.6L240.2,204.1z"/>
	<polygon class="st4" points="82.3,117.8 116.9,209.2 52.7,235.4 131,208.2 231.7,167.7 285.5,143.8 336.1,119.7 301.7,133.4 
		307.3,117.8 273.2,117.8 261.6,150.1 218.7,167.7 194.8,117.8 159.8,191.4 145.5,197.5 117.3,117.8 	"/>
	<circle class="st5" cx="59.1" cy="263.8" r="6.6"/>
	<circle class="st5" cx="315.7" cy="157" r="6.6"/>
	<circle class="st6" cx="60.1" cy="232.5" r="6.6"/>
	<circle class="st6" cx="330.4" cy="121.4" r="6.6"/>
</g>
</svg>
